<svg xmlns="http://www.w3.org/2000/svg" data-name="Layer 1" viewBox="0 0 512 512"><path fill="#ffc166" d="M115.283 218.556c-2.49.63-12.253 3.903-14.743 4.533a12.44 12.44 0 0 0-9.33 13.12 1.634 1.634 0 0 0 .02.22 12.431 12.431 0 0 0 12.82 11.37q16.875-.585 33.76-1.18 22.584-10.485 21.506-17.145-1.421-8.789-44.033-10.918Z"/><path fill="#ffc570" d="M156.734 233.367 128.8 252.719a13.498 13.498 0 0 0 11.94 23.95l48.13-16.47c.742-2.9 1.886-9.27-1.21-15.413-4.71-9.343-17.354-14.452-30.926-11.42Z"/><rect width="341.42" height="203.94" x="163.08" y="243.259" fill="#79ed97" rx="30"/><path fill="#63ea86" d="M474.5 243.26h-15a30 30 0 0 1 30 30V417.2a30 30 0 0 1-30 30h15a30 30 0 0 0 30-30V273.26a30 30 0 0 0-30-30Z"/><path fill="#fff" d="M193.08 395.2v-99.94a22 22 0 0 0 22-22H452.5a22 22 0 0 0 22 22v99.94a22 22 0 0 0-22 22H215.08a22 22 0 0 0-22-22Z"/><path fill="#eee" d="M452.5 273.26h-15a22 22 0 0 0 22 22v99.94a22 22 0 0 0-22 22h15a22 22 0 0 1 22-22v-99.94a22 22 0 0 1-22-22Z"/><path fill="#79ed97" d="M355.397 321.277h-5.206a30.896 30.896 0 0 0-3.568-8.571h8.774a7.5 7.5 0 0 0 0-15h-43.214a7.5 7.5 0 0 0 0 15h7.857a16.08 16.08 0 0 1 14.203 8.57h-22.06a7.5 7.5 0 0 0 0 15h22.06a16.08 16.08 0 0 1-14.203 8.572h-7.857a7.5 7.5 0 0 0-5.424 12.68l31.428 32.906a7.5 7.5 0 1 0 10.848-10.36l-20.457-21.419a31.187 31.187 0 0 0 21.61-22.378h5.21a7.5 7.5 0 0 0 0-15Z"/><path fill="#ffcd85" d="m259.43 252.54-11.79-9.28-57-44.88a14.546 14.546 0 0 1-5.57-11.48 14.168 14.168 0 0 1 .09-1.59c.02-.22.05-.45.09-.67a14.43 14.43 0 0 1 1.68-4.86 14.607 14.607 0 0 1 20.72-5.1l6.44 4.2 16.63 10.84 8.95 5.85 5.87 47.69h33.3l-6.54-64.53a65.448 65.448 0 0 0-7.25-23.75l-3.27-6.15c-.06-.12-.12-.23-.18-.35l-.06-.12q-13.71-27.12-27.43-54.25a19.75 19.75 0 0 0-16.79-10.83q-58.575 3.975-117.14 7.94l-13.62.93c-.79.05-1.59.11-2.38.16q-4.08-.12-8.35-.39c-2.21-.14-13.86-1.37-15.99-1.56l-24.467 89.485L64.86 199.78a39.762 39.762 0 0 0 9.83 4.94l48.32 16.47 30.76 10.49 11.47 6.53 13.2 7.52 21.83 12.43 3.6 2.04.16.09 23.07 13.14.42.24 12.79 7.28a17.18 17.18 0 0 0 25.29-11.25 17.29 17.29 0 0 0-1.05-10.55 17.056 17.056 0 0 0-5.12-6.61Z"/><path fill="#ffc570" d="M190.64 198.38a14.546 14.546 0 0 1-5.57-11.48 14.168 14.168 0 0 1 .09-1.59c.02-.22.05-.45.09-.67a14.6 14.6 0 0 1 6.902-10.248 14.594 14.594 0 0 0-20.222 5.388 14.43 14.43 0 0 0-1.68 4.86c-.04.22-.07.45-.09.67a14.168 14.168 0 0 0-.09 1.59 14.546 14.546 0 0 0 5.57 11.48l57 44.88h15zm28.47-104.27q13.71 27.12 27.43 54.25l.06.12c.06.12.12.23.18.35l3.27 6.15a65.448 65.448 0 0 1 7.25 23.75l6.54 64.53h15l-6.54-64.53a65.448 65.448 0 0 0-7.25-23.75l-3.27-6.15c-.06-.12-.12-.23-.18-.35l-.06-.12q-13.71-27.12-27.43-54.25a19.75 19.75 0 0 0-16.79-10.83l-10.553.715A19.72 19.72 0 0 1 219.11 94.11zM60.83 91.92q4.275.27 8.35.39c.79-.05 1.59-.11 2.38-.16l3.837-.262c-2.977-.235-13.537-1.347-15.556-1.527l-.396 1.446c.6.054 1.085.094 1.385.113z"/><path fill="#ffc570" d="m259.43 252.54-11.79-9.28h-15l11.79 9.28a17.056 17.056 0 0 1 5.12 6.61 17.147 17.147 0 0 1-2.59 17.94 17.082 17.082 0 0 1-5.662 4.38A17.179 17.179 0 0 0 265.6 269.7a17.29 17.29 0 0 0-1.05-10.55 17.056 17.056 0 0 0-5.12-6.61Z"/><path fill="#f66" d="m0 64.8 56.234 12.208a9 9 0 0 1 6.787 10.767L38.747 194.861a9 9 0 0 1-10.767 6.787L0 197.006"/><path fill="#ff4e4e" d="M56.234 77.008 0 64.801v11.537l41.234 8.952a9 9 0 0 1 6.787 10.767L24.227 201.026l3.753.622a9 9 0 0 0 10.767-6.787L63.021 87.775a9 9 0 0 0-6.787-10.767Z"/></svg>